<?xml version="1.0" standalone="no"?>
<!DOCTYPE svg PUBLIC "-//W3C//DTD SVG 20010904//EN"
 "http://www.w3.org/TR/2001/REC-SVG-20010904/DTD/svg10.dtd">
<svg version="1.0" xmlns="http://www.w3.org/2000/svg"
 width="300.000000pt" height="170.000000pt" viewBox="0 0 300.000000 170.000000"
 preserveAspectRatio="xMidYMid meet">

<g transform="translate(0.000000,170.000000) scale(0.100000,-0.100000)"
fill="#000000" stroke="none">
<path d="M1600 852 l0 -842 681 0 c648 0 681 1 668 18 -8 9 -36 43 -63 75
l-49 57 -513 0 -514 0 0 644 0 643 -22 29 c-18 24 -115 137 -175 204 -11 12
-13 -133 -13 -828z"/>
<path d="M752 849 c-370 -457 -672 -833 -670 -835 2 -1 57 -4 122 -5 l118 -1
450 568 c247 313 456 576 465 584 14 14 15 -41 11 -568 l-5 -582 87 0 88 0 6
373 c4 204 6 580 4 835 l-3 462 -673 -831z"/>
</g>
</svg>
